<?xml version="1.0" encoding="UTF-8" standalone="no"?>
<svg
   xmlns:dc="http://purl.org/dc/elements/1.1/"
   xmlns:cc="http://creativecommons.org/ns#"
   xmlns:rdf="http://www.w3.org/1999/02/22-rdf-syntax-ns#"
   xmlns:svg="http://www.w3.org/2000/svg"
   xmlns="http://www.w3.org/2000/svg"
   xmlns:sodipodi="http://sodipodi.sourceforge.net/DTD/sodipodi-0.dtd"
   xmlns:inkscape="http://www.inkscape.org/namespaces/inkscape"
   viewBox="0 0 231.36348 231.35352"
   version="1.1"
   id="svg14911"
   sodipodi:docname="clojure-mono.svg"
   width="231.36348"
   height="231.35352"
   inkscape:version="0.92.2 (5c3e80d, 2017-08-06)">
  <metadata
     id="metadata14917">
    <rdf:RDF>
      <cc:Work
         rdf:about="">
        <dc:format>image/svg+xml</dc:format>
        <dc:type
           rdf:resource="http://purl.org/dc/dcmitype/StillImage" />
        <dc:title></dc:title>
      </cc:Work>
    </rdf:RDF>
  </metadata>
  <defs
     id="defs14915" />
  <sodipodi:namedview
     pagecolor="#ffffff"
     bordercolor="#666666"
     borderopacity="1"
     objecttolerance="10"
     gridtolerance="10"
     guidetolerance="10"
     inkscape:pageopacity="0"
     inkscape:pageshadow="2"
     inkscape:window-width="1779"
     inkscape:window-height="930"
     id="namedview14913"
     showgrid="false"
     fit-margin-top="0"
     fit-margin-left="0"
     fit-margin-right="0"
     fit-margin-bottom="0"
     inkscape:zoom="0.921875"
     inkscape:cx="114.4859"
     inkscape:cy="115.89453"
     inkscape:window-x="0"
     inkscape:window-y="0"
     inkscape:window-maximized="0"
     inkscape:current-layer="svg14911" />
  <path
     style="fill:#969696;fill-opacity:1"
     d="M 115.69174,0 C 76.947742,0 42.675932,19.073359 21.683932,48.318359 c 10.925,-6.842 22.0814,-9.310656 31.8164,-9.222656 13.446,0.039 24.01589,4.208547 29.08789,7.060547 1.225,0.706 2.38835,1.465093 3.52735,2.246093 9.05,-3.986 19.050218,-6.214843 29.574218,-6.214843 40.589,0.005 73.49205,32.899281 73.49805,73.48828 h -0.006 c 0,20.464 -8.37028,38.96701 -21.86328,52.29101 3.312,0.371 6.84417,0.60199 10.45117,0.58399 12.811,0.006 26.65806,-2.82174 37.03906,-11.55274 6.769,-5.702 12.44094,-14.05036 15.58594,-26.56836 0.615,-4.835 0.96875,-9.74995 0.96875,-14.75195 C 231.36348,51.795734 179.5766,0 115.6916,0 Z m -0.002,54.513672 c -6.714,0.013 -13.16412,1.120093 -19.203118,3.121093 12.418998,14.156 18.390958,34.386629 24.167958,56.515625 0.003,0.01 0.008,0.0174 0.01,0.0254 0.011,0.018 1.84795,6.14443 5.00195,14.27343 3.132,8.118 7.59494,18.16819 12.46094,25.49219 3.195,4.908 6.70856,8.43571 9.10156,9.4707 0.714,0.35401 2.33294,0.93132 4.58594,1.57032 15.157,-11.127 25.00592,-29.04964 25.04492,-49.30664 h -0.006 c -0.057,-33.770999 -27.38506,-61.095108 -61.16406,-61.162108 z m -61.193358,4.359374 c -21.562,0.203001 -44.32283,12.136282 -53.79882976,44.363274 -0.886,4.691 -0.67578,8.23741 -0.67578,12.44141 0,63.885 51.78991976,115.67578 115.66991776,115.67578 39.122,0 73.68233,-19.43797 94.61133,-49.16797 -11.32,2.821 -22.20534,4.17022 -31.52734,4.19922 -3.494,0 -6.77355,-0.18759 -9.81055,-0.55859 -8.1,-1.015 -14.78481,-2.23974 -20.63281,-4.30274 -9.836,4.884 -20.91358,7.64258 -32.64258,7.64258 -40.583998,0 -73.483288,-32.89423 -73.488288,-73.49023 0,-22.026996 9.70465,-41.773234 25.05665,-55.240234 -4.106,-0.992 -8.38772,-1.570499 -12.76172,-1.5625 z m 26.04492,6.810547 c -15.699,11.064 -25.97272,29.312191 -26.01172,49.992187 0.039,20.371 10.00264,38.38414 25.30664,49.49414 3.754,-15.637 13.1644,-29.95625 27.275398,-58.65625 -0.838,-2.302 -1.79233,-4.82175 -2.86133,-7.468746 -3.909,-9.806 -9.550938,-21.194565 -14.585938,-26.351565 -2.567,-2.694 -5.68205,-5.021766 -9.12305,-7.009766 z m 30.347658,52.078117 c -1.15,2.492 -2.41842,5.29149 -3.73242,8.27149 -4.645,10.524 -9.788968,23.33115 -11.667968,31.53516 -0.675,2.92199 -1.09394,6.54359 -1.08594,10.55859 0,1.588 0.0857,3.25508 0.2207,4.95508 6.566998,2.413 13.659408,3.7409 21.066408,3.7539 6.743,-0.013 13.2202,-1.12658 19.2832,-3.14257 -1.425,-1.303 -2.78348,-2.69282 -4.02148,-4.25782 -8.22,-10.482 -12.8065,-25.84383 -20.0625,-51.67383 z"
     id="path10"
     inkscape:connector-curvature="0" />
</svg>
