<?xml version="1.0" encoding="UTF-8" standalone="no"?>
<!-- Created with Inkscape (http://www.inkscape.org/) -->

<svg
   xmlns:dc="http://purl.org/dc/elements/1.1/"
   xmlns:cc="http://creativecommons.org/ns#"
   xmlns:rdf="http://www.w3.org/1999/02/22-rdf-syntax-ns#"
   xmlns:svg="http://www.w3.org/2000/svg"
   xmlns="http://www.w3.org/2000/svg"
   xmlns:sodipodi="http://sodipodi.sourceforge.net/DTD/sodipodi-0.dtd"
   xmlns:inkscape="http://www.inkscape.org/namespaces/inkscape"
   version="1.1"
   id="svg8815"
   width="1000.1016"
   height="1031.0972"
   viewBox="0 0 1000.1017 1031.0972"
   sodipodi:docname="commonlisp-original.svg"
   inkscape:version="0.92.2 (5c3e80d, 2017-08-06)">
  <metadata
     id="metadata8821">
    <rdf:RDF>
      <cc:Work
         rdf:about="">
        <dc:format>image/svg+xml</dc:format>
        <dc:type
           rdf:resource="http://purl.org/dc/dcmitype/StillImage" />
        <dc:title></dc:title>
      </cc:Work>
    </rdf:RDF>
  </metadata>
  <defs
     id="defs8819" />
  <sodipodi:namedview
     pagecolor="#ffffff"
     bordercolor="#666666"
     borderopacity="1"
     objecttolerance="10"
     gridtolerance="10"
     guidetolerance="10"
     inkscape:pageopacity="0"
     inkscape:pageshadow="2"
     inkscape:window-width="1368"
     inkscape:window-height="851"
     id="namedview8817"
     showgrid="false"
     fit-margin-top="0"
     fit-margin-left="0"
     fit-margin-right="0"
     fit-margin-bottom="0"
     inkscape:zoom="0.62190266"
     inkscape:cx="555.61674"
     inkscape:cy="468.16057"
     inkscape:window-x="0"
     inkscape:window-y="0"
     inkscape:window-maximized="0"
     inkscape:current-layer="svg8815" />
  <path
     style="fill:#000000;stroke-width:1.33333325"
     d="m 460.88652,1030.7993 c -2.2,-0.3129 -11.2,-1.4807 -20,-2.595 -58.55573,-7.4147 -117.0581,-26.4652 -173.93194,-56.63862 -23.42024,-12.4252 -29.90842,-16.3889 -51.0104,-31.1631 -21.98069,-15.3895 -34.83743,-26.4954 -61.83648,-53.4158 -43.57208,-43.445 -69.10705,-77.96951 -96.674648,-130.70852 -8.92806,-17.0801 -20.48802,-42.90984 -23.86905,-53.33333 -0.95147,-2.93333 -3.15055,-8.46108 -4.88683,-12.28388 C 22.686692,677.47177 9.6752124,627.15619 4.9596124,598.94493 1.3724524,577.48457 -0.00477755,553.04792 1.2447088e-5,510.94494 0.00501245,464.39295 1.2298224,447.98897 6.9172824,418.27827 13.870032,381.95786 22.482912,352.32892 37.924382,311.61161 50.931552,277.31325 82.69542,223.09299 112.12953,184.94495 c 18.19678,-23.58394 89.04814,-90.666672 95.7602,-90.666672 0.68758,0 2.39316,-1.27504 3.79014,-2.83342 4.09143,-4.5641 19.99195,-14.82182 43.21461,-27.87855 79.21794,-44.53958 164.42167,-66.0145495 251.32538,-63.34470967 67.1132,2.06182997 106.9809,9.87341967 167.3333,32.78689967 16.0392,6.08946 35.7034,14.91439 42.6667,19.14801 1.8333,1.11465 7.8333,4.08014 13.3333,6.58997 11.1958,5.10901 64.5264,40.04456 80.1195,52.484302 15.5287,12.38836 63.7077,61.50465 76.6806,78.17242 15.4203,19.81212 42.5148,60.82553 51.6665,78.20841 21.925,41.64461 43.73084,102.78902 52.30554,146.66666 13.0906,66.98597 13.0294,152.77827 -0.1505,211.15342 -10.8876,48.2221 -25.4187,90.57059 -43.31384,126.23075 -12.8183,25.54352 -35.903,63.6999 -46.9333,77.57554 -2.4951,3.1388 -5.6528,7.4925 -7.017,9.6749 -14.2082,22.7291 -70.4596,77.1904 -102.0242,98.7775 -8.4333,5.7676 -18.847,12.9094 -23.1415,15.8706 -9.3765,6.4654 -13.1576,8.629 -38.2602,21.8936 -42.2916,22.34745 -77.8189,35.47592 -121.1219,44.75842 -42.7377,9.1613 -53.6123,10.3146 -101.4763,10.7623 -23.1,0.2161 -43.80004,0.1369 -46.00004,-0.176 z m 253.99994,-65.36532 c 21.7052,-7.1452 45.632,-21.1208 78,-45.5598 71.7716,-54.1901 125.7929,-125.87124 159.9684,-212.26258 15.31094,-38.70419 28.88804,-92.72427 32.67134,-129.99171 4.1944,-41.31793 2.6303,-106.56281 -3.3758,-140.81456 C 972.365,381.00099 951.34316,317.6106 928.78296,275.87774 888.96436,202.21973 832.39916,139.4356 765.55316,94.701958 676.64256,35.202548 574.56396,7.1019983 468.21985,12.850968 c -62.94949,3.40306 -129.23554,21.59214 -188.29154,51.66774 -7.86036,4.00306 -16.26036,9.18658 -18.66667,11.51894 l -4.37512,4.24064 4.1818,0.40651 c 2.29999,0.22358 10.87062,-0.52642 19.04584,-1.66667 18.8204,-2.62499 48.8474,-2.65718 68.55687,-0.0735 40.12064,5.25935 81.29889,22.105132 114.88215,46.997622 15.73862,11.66572 40.49918,36.46364 52.25728,52.33602 35.3368,47.70176 52.8681,101.12545 52.9426,161.33333 0.043,35.04504 -5.2127,64.8876 -16.5234,93.81672 -14.3414,36.68057 -29.0865,58.91793 -69.1809,104.33244 -25.35672,28.7213 -41.78515,56.61071 -53.3238,90.52411 -29.07073,85.44215 -12.56012,179.67417 43.67333,249.2596 34.08847,42.1824 77.61117,70.4246 131.84857,85.5573 20.5003,5.7198 38.6477,7.2392 74.973,6.2773 21.5507,-0.5707 25.9299,-1.0691 34.6666,-3.9451 z m -182.6666,-219.5633 c 0,-0.22418 3.9325,-6.97418 8.7389,-15 10.4937,-17.52239 56.3291,-108.93723 69.1561,-137.92575 18.6793,-42.21469 43.4706,-111.32191 50.7061,-141.34655 9.6045,-39.85471 9.821,-81.46835 0.5853,-112.48017 -6.7229,-22.57431 -38.2325,-76.7514 -68.0396,-116.98648 -5.7641,-7.78061 -10.4802,-14.62146 -10.4802,-15.2019 0,-1.78268 84.4335,0.59504 86.1847,2.42705 2.1777,2.27817 34.4269,54.7782 46.5604,75.79793 5.6481,9.78457 16.4558,29.49013 24.0171,43.79013 12.3325,23.32327 19.3155,37.88753 48.586,101.33333 28.0287,60.75408 62.4884,149.56888 86.3937,222.66666 12.5805,38.46881 25.4579,80.69536 26.3939,86.54873 0.7706,4.8189 0.553,5.39307 -2.3092,6.09364 -1.7379,0.42542 -18.9913,0.60491 -38.3408,0.39888 l -35.1809,-0.37458 -3.8954,-13.33334 c -10.5246,-36.02409 -18.6543,-61.09931 -33.0697,-101.99999 -30.1746,-85.61409 -49.9101,-134.78633 -53.2648,-132.71297 -1.1831,0.73116 -4.5856,9.2035 -18.225,45.37964 -9.1516,24.27301 -24.7979,59.72746 -40.6002,91.99999 -14.5586,29.73235 -54.6395,104.13867 -58.3273,108.27892 l -2.7207,3.05441 h -41.4342 c -22.7888,0 -41.4342,-0.18341 -41.4342,-0.40758 z m -136.00001,86.9423 c 0,-0.8059 -3.45586,-6.0559 -7.67969,-11.6666 -8.85673,-11.76497 -29.31204,-42.38854 -35.65132,-53.3735 -2.37877,-4.12204 -7.80679,-13.19462 -12.06225,-20.16128 -20.4,-33.39706 -28.61444,-61.88295 -28.59887,-99.17465 0.0135,-32.37319 4.42314,-52.91106 23.332,-108.66912 10.18676,-30.03849 20.36297,-56.45488 32.67576,-84.82289 15.58059,-35.89685 62.03107,-127.78248 75.0318,-148.42352 3.24892,-5.15828 4.82761,-8.90144 4.07263,-9.65642 -1.03396,-1.03396 -81.75348,-4.5301 -82.51083,-3.57374 -1.40912,1.77943 -26.43514,45.7347 -33.96394,59.65368 -32.5362,60.15177 -74.56335,152.63489 -84.06963,185 -0.91544,3.11666 -2.20247,5.66666 -2.86008,5.66666 -1.50113,0 -5.72589,-9.46682 -16.4931,-36.95774 -20.00027,-51.06484 -40.7639,-111.59116 -58.64675,-170.95626 -6.94429,-23.05271 -12.95819,-42.24624 -13.36424,-42.65228 -1.25945,-1.25947 -47.12086,-1.63347 -61.87814,-0.50463 l -14,1.07092 0.2461,5.33333 c 0.43021,9.32295 27.8781,96.87137 48.49059,154.66667 12.98324,36.40369 33.22685,87.61835 51.6486,130.66666 39.47605,92.24848 65.39643,144.08991 97.99871,195.99999 7.36916,11.73333 16.1858,25.83333 19.59254,31.33333 13.128,21.19449 11.92784,19.94399 19.35678,20.16799 3.66667,0.1105 16.56667,0.6086 28.66667,1.107 37.59268,1.5482 50.66666,1.5292 50.66666,-0.074 z"
     id="path9371"
     inkscape:connector-curvature="0" />
</svg>
