<svg xmlns="http://www.w3.org/2000/svg" viewBox="0 0 128 128">
    <path
       fill="#969696"
       d="M 7.9101562 4.6503906 L 33.740234 30.490234 L 89.910156 30.490234 L 64.070312 4.6503906 L 7.9101562 4.6503906 z M 70.580078 4.6503906 L 123.34961 57.419922 L 123.34961 4.6503906 L 70.580078 4.6503906 z M 4.6503906 7.9101562 L 4.6503906 120.09961 L 60.740234 64 L 4.6503906 7.9101562 z M 38.349609 35.089844 L 64 60.740234 L 89.650391 35.089844 L 38.349609 35.089844 z M 95.341797 35.914062 L 67.263672 63.992188 L 95.214844 91.945312 L 123.29492 63.865234 L 95.341797 35.914062 z M 64 67.259766 L 7.9101562 123.34961 L 120.08984 123.34961 L 64 67.259766 z M 123.34961 70.330078 L 98.470703 95.210938 L 123.34961 120.09961 L 123.34961 70.330078 z "
       id="polygon8" />
</svg>
