<?xml version="1.0" encoding="UTF-8" standalone="no"?>
<svg
   xmlns:dc="http://purl.org/dc/elements/1.1/"
   xmlns:cc="http://creativecommons.org/ns#"
   xmlns:rdf="http://www.w3.org/1999/02/22-rdf-syntax-ns#"
   xmlns:svg="http://www.w3.org/2000/svg"
   xmlns="http://www.w3.org/2000/svg"
   xmlns:sodipodi="http://sodipodi.sourceforge.net/DTD/sodipodi-0.dtd"
   xmlns:inkscape="http://www.inkscape.org/namespaces/inkscape"
   viewBox="0 0 128 128"
   version="1.1"
   id="svg16162"
   sodipodi:docname="github-mono.svg"
   inkscape:version="0.92.2 (5c3e80d, 2017-08-06)">
  <metadata
     id="metadata16168">
    <rdf:RDF>
      <cc:Work
         rdf:about="">
        <dc:format>image/svg+xml</dc:format>
        <dc:type
           rdf:resource="http://purl.org/dc/dcmitype/StillImage" />
        <dc:title></dc:title>
      </cc:Work>
    </rdf:RDF>
  </metadata>
  <defs
     id="defs16166" />
  <sodipodi:namedview
     pagecolor="#ffffff"
     bordercolor="#666666"
     borderopacity="1"
     objecttolerance="10"
     gridtolerance="10"
     guidetolerance="10"
     inkscape:pageopacity="0"
     inkscape:pageshadow="2"
     inkscape:window-width="1329"
     inkscape:window-height="741"
     id="namedview16164"
     showgrid="false"
     inkscape:zoom="1.84375"
     inkscape:cx="64"
     inkscape:cy="69.851596"
     inkscape:window-x="0"
     inkscape:window-y="0"
     inkscape:window-maximized="0"
     inkscape:current-layer="svg16162" />
  <g
     fill="#181616"
     id="g16160"
     style="fill:#969696;fill-opacity:1">
    <path
       style="fill:#969696;fill-opacity:1"
       d="M 64 5.1035156 C 30.653 5.1035156 3.6113281 32.137234 3.6113281 65.490234 C 3.6113281 92.172234 20.914203 114.80892 44.908203 122.79492 C 47.925203 123.35492 49.033203 121.48367 49.033203 119.88867 C 49.033203 118.44867 48.977172 113.69248 48.951172 108.64648 C 32.151172 112.29948 28.607422 101.52148 28.607422 101.52148 C 25.860422 94.541484 21.902344 92.685547 21.902344 92.685547 C 16.422344 88.937547 22.314453 89.015625 22.314453 89.015625 C 28.377453 89.440625 31.572266 95.238281 31.572266 95.238281 C 36.958266 104.46828 45.698531 101.79981 49.144531 100.25781 C 49.686531 96.354812 51.251516 93.689641 52.978516 92.181641 C 39.565516 90.656641 25.464844 85.478844 25.464844 62.339844 C 25.464844 55.746844 27.8245 50.358906 31.6875 46.128906 C 31.0595 44.608906 28.992484 38.466437 32.271484 30.148438 C 32.271484 30.148438 37.342813 28.526844 48.882812 36.339844 C 53.700812 35.000844 58.867 34.327687 64 34.304688 C 69.13 34.327688 74.299953 34.998891 79.126953 36.337891 C 90.652953 28.524891 95.716797 30.146484 95.716797 30.146484 C 99.003797 38.463484 96.937547 44.606953 96.310547 46.126953 C 100.18255 50.356953 102.52539 55.744891 102.52539 62.337891 C 102.52539 85.531891 88.398172 90.636813 74.951172 92.132812 C 77.118172 94.006812 79.048828 97.683406 79.048828 103.31641 C 79.048828 111.39641 78.978516 117.89967 78.978516 119.88867 C 78.978516 121.49567 80.066953 123.37816 83.126953 122.78516 C 107.10695 114.79116 124.38867 92.162234 124.38867 65.490234 C 124.38767 32.139234 97.35 5.1035156 64 5.1035156 z "
       id="path16156" />
    <path
       d="M26.484 91.806c-.133.3-.605.39-1.035.185-.44-.196-.685-.605-.543-.906.13-.31.603-.395 1.04-.188.44.197.69.61.537.91zm-.743-.55M28.93 94.535c-.287.267-.85.143-1.232-.28-.396-.42-.47-.983-.177-1.254.298-.266.844-.14 1.24.28.394.426.472.984.17 1.255zm-.575-.618M31.312 98.012c-.37.258-.976.017-1.35-.52-.37-.538-.37-1.183.01-1.44.373-.258.97-.025 1.35.507.368.545.368 1.19-.01 1.452zm0 0M34.573 101.373c-.33.365-1.036.267-1.552-.23-.527-.487-.674-1.18-.343-1.544.336-.366 1.045-.264 1.564.23.527.486.686 1.18.333 1.543zm0 0M39.073 103.324c-.147.473-.825.688-1.51.486-.683-.207-1.13-.76-.99-1.238.14-.477.823-.7 1.512-.485.683.206 1.13.756.988 1.237zm0 0M44.016 103.685c.017.498-.563.91-1.28.92-.723.017-1.308-.387-1.315-.877 0-.503.568-.91 1.29-.924.717-.013 1.306.387 1.306.88zm0 0M48.614 102.903c.086.485-.413.984-1.126 1.117-.7.13-1.35-.172-1.44-.653-.086-.498.422-.997 1.122-1.126.714-.123 1.354.17 1.444.663zm0 0"
       id="path16158"
       style="fill:#969696;fill-opacity:1" />
  </g>
</svg>
