<?xml version="1.0" encoding="UTF-8" standalone="no"?>
<svg
   xmlns:dc="http://purl.org/dc/elements/1.1/"
   xmlns:cc="http://creativecommons.org/ns#"
   xmlns:rdf="http://www.w3.org/1999/02/22-rdf-syntax-ns#"
   xmlns:svg="http://www.w3.org/2000/svg"
   xmlns="http://www.w3.org/2000/svg"
   xmlns:sodipodi="http://sodipodi.sourceforge.net/DTD/sodipodi-0.dtd"
   xmlns:inkscape="http://www.inkscape.org/namespaces/inkscape"
   viewBox="0 0 128 128"
   version="1.1"
   id="svg4"
   sodipodi:docname="html5-mono.svg"
   inkscape:version="0.92.2 (5c3e80d, 2017-08-06)">
  <metadata
     id="metadata10">
    <rdf:RDF>
      <cc:Work
         rdf:about="">
        <dc:format>image/svg+xml</dc:format>
        <dc:type
           rdf:resource="http://purl.org/dc/dcmitype/StillImage" />
        <dc:title></dc:title>
      </cc:Work>
    </rdf:RDF>
  </metadata>
  <defs
     id="defs8" />
  <sodipodi:namedview
     pagecolor="#ffffff"
     bordercolor="#666666"
     borderopacity="1"
     objecttolerance="10"
     gridtolerance="10"
     guidetolerance="10"
     inkscape:pageopacity="0"
     inkscape:pageshadow="2"
     inkscape:window-width="1335"
     inkscape:window-height="777"
     id="namedview6"
     showgrid="false"
     inkscape:zoom="1.84375"
     inkscape:cx="64"
     inkscape:cy="64"
     inkscape:window-x="0"
     inkscape:window-y="0"
     inkscape:window-maximized="0"
     inkscape:current-layer="svg4" />
  <path
     d="M 9.03125 2 L 19.037109 114.09375 L 63.933594 126.49414 L 108.95312 114.10742 L 118.96875 2 L 9.03125 2 z M 29.548828 25 L 98.488281 25 L 98.158203 28.539062 L 97.53125 35.710938 L 97.255859 39 L 44.589844 39 L 45.847656 53 L 96.003906 53 L 95.667969 56.470703 L 92.433594 92.589844 L 92.195312 94.859375 L 64 102.60938 L 64 102.61133 L 63.966797 102.62891 L 35.789062 95.205078 L 33.876953 74 L 47.691406 74 L 48.669922 84.919922 L 63.957031 89 L 64 89 L 64 88.453125 L 79.355469 84.578125 L 80.958984 67 L 33.261719 67 L 29.878906 28.882812 L 29.548828 25 z "
     id="path2"
     style="fill:#969696;fill-opacity:1" />
</svg>
