<svg xmlns="http://www.w3.org/2000/svg" viewBox="0 0 128 128">
  <path fill="#969696"
        d="M 76.490234 1.5878906 C 81.721234 22.195891 58.040188 28.419906 49.492188 41.253906 C 43.671188 49.998906 52.350641 59.395359 64.181641 70.068359 C 59.567641 59.639359 43.9215 50.515766 64.1875 34.509766 C 89.4585 14.562766 76.490234 1.5878906 76.490234 1.5878906 z M 92.126953 27.083984 C 92.126953 27.084984 49.395734 37.754484 69.802734 61.271484 C 75.827734 68.206484 68.222656 74.441406 68.222656 74.441406 C 68.222656 74.441406 83.510234 66.550062 76.490234 56.664062 C 69.931234 47.449062 64.904953 42.871984 92.126953 27.083984 z M 100.33203 69.105469 C 98.647666 69.024729 96.833969 69.276719 94.964844 69.933594 C 93.652844 70.397594 92.964844 71.476562 92.964844 71.476562 C 92.964844 71.476562 93.792625 71.140859 95.640625 70.755859 C 103.19962 69.180859 114.03038 80.874016 90.609375 93.041016 C 90.500375 93.331016 90.140625 93.656203 90.140625 93.658203 C 117.50537 86.463953 112.12259 69.67065 100.33203 69.105469 z M 48.365234 70.283203 C 45.379109 70.361156 38.391578 71.00825 30.267578 74.9375 C 17.454578 81.1335 61.956047 83.955531 84.998047 77.894531 C 87.394047 76.260531 90.703125 74.841797 90.703125 74.841797 C 90.703125 74.841797 81.280625 76.527406 71.890625 77.316406 C 60.397625 78.280406 48.066906 78.470578 41.878906 77.642578 C 27.225906 75.683578 49.912109 70.294922 49.912109 70.294922 C 49.912109 70.294922 49.360609 70.257219 48.365234 70.283203 z M 44.628906 84.455078 C 23.491906 91.471078 56.3955 99.431016 85.9375 90.791016 C 82.7985 89.685016 80.806641 87.660156 80.806641 87.660156 C 66.362641 90.440156 58.018172 90.350766 47.451172 89.259766 C 39.280172 88.413766 44.628906 84.455078 44.628906 84.455078 z M 47.617188 98.119141 C 28.424188 103.48114 59.293422 114.55984 83.732422 104.08984 C 79.730422 102.53384 76.859375 100.73828 76.859375 100.73828 C 65.961375 102.79828 60.905672 102.96008 51.013672 101.83008 C 42.849672 100.89408 47.617188 98.119141 47.617188 98.119141 z M 34.287109 107.17969 C 25.668181 107.44591 8.81125 115.19555 24.226562 117.69727 C 74.047562 125.77327 115.04405 114.05952 102.12305 108.22852 C 102.12305 108.22852 105.65138 111.13967 98.234375 113.38867 C 84.132375 117.66067 39.528625 118.94759 27.140625 113.55859 C 22.689625 111.62059 31.040969 108.93419 33.667969 108.36719 C 36.406969 107.77419 37.970703 107.88281 37.970703 107.88281 C 37.196797 107.33797 35.883207 107.13039 34.287109 107.17969 z M 110.03125 114.58594 C 110.03125 114.58594 108.45913 118.61741 91.453125 121.81641 C 72.267125 125.42841 48.599406 125.00645 34.566406 122.68945 C 34.566406 122.69045 37.442844 125.07148 52.214844 126.02148 C 74.690844 127.45848 109.21425 125.22194 110.03125 114.58594 z "/>
</svg>
