<?xml version="1.0" encoding="UTF-8" standalone="no"?>
<!-- Created with Inkscape (http://www.inkscape.org/) -->

<svg
   xmlns:dc="http://purl.org/dc/elements/1.1/"
   xmlns:cc="http://creativecommons.org/ns#"
   xmlns:rdf="http://www.w3.org/1999/02/22-rdf-syntax-ns#"
   xmlns:svg="http://www.w3.org/2000/svg"
   xmlns="http://www.w3.org/2000/svg"
   xmlns:sodipodi="http://sodipodi.sourceforge.net/DTD/sodipodi-0.dtd"
   xmlns:inkscape="http://www.inkscape.org/namespaces/inkscape"
   version="1.1"
   id="svg2"
   width="975.50903"
   height="975.50903"
   viewBox="0 0 975.50903 975.50903"
   sodipodi:docname="scala-mono.svg"
   inkscape:version="0.92.2 (5c3e80d, 2017-08-06)">
  <metadata
     id="metadata8">
    <rdf:RDF>
      <cc:Work
         rdf:about="">
        <dc:format>image/svg+xml</dc:format>
        <dc:type
           rdf:resource="http://purl.org/dc/dcmitype/StillImage" />
        <dc:title></dc:title>
      </cc:Work>
    </rdf:RDF>
  </metadata>
  <defs
     id="defs6" />
  <sodipodi:namedview
     pagecolor="#ffffff"
     bordercolor="#666666"
     borderopacity="1"
     objecttolerance="10"
     gridtolerance="10"
     guidetolerance="10"
     inkscape:pageopacity="0"
     inkscape:pageshadow="2"
     inkscape:window-width="1538"
     inkscape:window-height="860"
     id="namedview4"
     showgrid="false"
     fit-margin-top="0"
     fit-margin-left="0"
     fit-margin-right="0"
     fit-margin-bottom="0"
     showguides="true"
     inkscape:guide-bbox="true"
     inkscape:zoom="0.48163265"
     inkscape:cx="273.17518"
     inkscape:cy="436.92922"
     inkscape:window-x="0"
     inkscape:window-y="0"
     inkscape:window-maximized="0"
     inkscape:current-layer="svg2" />
  <path
     style="fill:#969696;fill-opacity:1"
     d="M 190,863.97735 V 752.44566 l 6.25,-0.5809 c 3.4375,-0.3195 12.55,-1.04916 20.25,-1.62148 83.36897,-6.19657 193.81299,-20.59561 284.5,-37.09143 8.47303,-1.54123 8.03464,-1.67182 -24.5,-7.29824 C 391.44537,691.1446 296.57822,679.2414 213,672.79168 c -10.725,-0.82765 -20.28947,-1.5049 -21.25437,-1.50501 -1.66345,-1.9e-4 -1.74118,-5.73909 -1.5,-110.7502 l 0.25437,-110.75 10.5,-0.70298 c 62.37134,-4.17582 150.68428,-14.19559 223.5,-25.35777 41.50495,-6.36245 82.67834,-13.66966 81.77425,-14.51282 C 505.38871,408.38703 457.39002,400.00789 424,394.85026 357.85072,384.63243 285.1858,376.02665 225,371.28249 c -14.575,-1.14888 -28.4125,-2.32055 -30.75,-2.60372 L 190,368.16392 V 257.81052 147.45711 l 7.25,-0.59945 c 3.9875,-0.32969 18.275,-1.50106 31.75,-2.60303 C 376.85574,132.1631 538.18994,105.72899 641.5,76.667759 720.0664,54.566949 766.52376,30.952935 778.4882,7.0374196 L 782.00888,-6.4062498e-6 781.75444,109.36021 781.5,218.72042 773,224.38918 c -10.30326,6.87137 -29.51169,16.93886 -44.76087,23.45998 -6.19348,2.64857 -10.91848,5.14686 -10.5,5.55176 0.41848,0.4049 4.36087,2.15219 8.76087,3.88287 30.34946,11.93751 51.64505,26.40021 54.50345,37.01549 0.65268,2.42388 0.91606,42.78526 0.75091,115.07469 L 781.5,520.71536 l -6.12495,4.27251 c -9.42613,6.57525 -29.52333,17.1608 -45.18288,23.7986 -7.78518,3.3 -14.16164,6.225 -14.16991,6.5 -0.008,0.275 3.92084,2.0048 8.73135,3.84399 14.20033,5.42919 36.22619,16.72812 43.64754,22.39052 3.79564,2.89602 8.29564,7.22218 10,9.61369 l 3.09885,4.3482 V 709.5684 823.65393 l -7,4.83487 c -10.68705,7.3815 -41.71275,22.55107 -64.66722,31.61812 C 625.70617,893.33703 488.44794,927.94131 344,952.33729 c -16.225,2.74026 -56.05,8.81466 -88.5,13.49866 -32.45,4.6841 -60.4625,8.7767 -62.25,9.0948 l -3.25,0.5783 z M 529.56287,684.86272 C 632.78657,664.04705 704.64798,641.46128 740.5,618.56597 c 7.54681,-4.81943 17.5,-13.91328 17.5,-15.98907 0,-2.82085 -18.00418,-13.15269 -36.03982,-20.68174 l -6.53982,-2.73007 -11.96018,4.4398 c -72.7445,27.00388 -193.83181,58.43943 -302.96018,78.65168 -12.1,2.24111 -23.125,4.34228 -24.5,4.66928 -1.47053,0.34971 8.20645,2.15922 23.5,4.39427 43.87378,6.41188 84.28717,13.11917 107.56287,17.8519 0.30957,0.063 10.43457,-1.87624 22.5,-4.3093 z m 5.63751,-303.14646 c 111.79799,-22.91249 189.33026,-49.2258 215.92205,-73.28075 8.97476,-8.11858 9.00015,-8.31219 1.73721,-13.24436 -6.39511,-4.34284 -30.36705,-16.26736 -35.01248,-17.41649 -1.91047,-0.47259 -6.80771,0.8756 -17.5,4.81768 -68.23933,25.15875 -164.41494,50.66062 -270.32838,71.68009 -18.98533,3.76781 -39.12844,7.64018 -44.76247,8.60528 -5.63403,0.96509 -10.06951,1.9289 -9.85662,2.14179 0.21289,0.21289 14.04755,2.37499 30.74369,4.80468 26.65665,3.87917 85.05272,13.41606 94.85662,15.49139 6.91149,1.46306 12.23091,0.90324 34.20038,-3.59931 z"
     id="path817"
     inkscape:connector-curvature="0" />
</svg>
