<?xml version="1.0" encoding="UTF-8" standalone="no"?>
<!-- Created with Inkscape (http://www.inkscape.org/) -->

<svg
   xmlns:dc="http://purl.org/dc/elements/1.1/"
   xmlns:cc="http://creativecommons.org/ns#"
   xmlns:rdf="http://www.w3.org/1999/02/22-rdf-syntax-ns#"
   xmlns:svg="http://www.w3.org/2000/svg"
   xmlns="http://www.w3.org/2000/svg"
   xmlns:sodipodi="http://sodipodi.sourceforge.net/DTD/sodipodi-0.dtd"
   xmlns:inkscape="http://www.inkscape.org/namespaces/inkscape"
   version="1.1"
   id="svg2"
   width="512"
   height="512"
   viewBox="0 0 512 512"
   sodipodi:docname="swi-prolog-mono.svg"
   inkscape:version="0.92.2 (5c3e80d, 2017-08-06)">
  <metadata
     id="metadata8">
    <rdf:RDF>
      <cc:Work
         rdf:about="">
        <dc:format>image/svg+xml</dc:format>
        <dc:type
           rdf:resource="http://purl.org/dc/dcmitype/StillImage" />
        <dc:title></dc:title>
      </cc:Work>
    </rdf:RDF>
  </metadata>
  <defs
     id="defs6" />
  <sodipodi:namedview
     pagecolor="#ffffff"
     bordercolor="#666666"
     borderopacity="1"
     objecttolerance="10"
     gridtolerance="10"
     guidetolerance="10"
     inkscape:pageopacity="0"
     inkscape:pageshadow="2"
     inkscape:window-width="1532"
     inkscape:window-height="801"
     id="namedview4"
     showgrid="false"
     inkscape:zoom="0.4609375"
     inkscape:cx="256"
     inkscape:cy="256"
     inkscape:window-x="0"
     inkscape:window-y="0"
     inkscape:window-maximized="0"
     inkscape:current-layer="svg2" />
  <path
     style="fill:#969696;fill-opacity:1"
     d="m 372.03713,511.17609 c 1.4269,-5.17689 1.1684,-14.95158 -0.5482,-20.73201 -5.5872,-18.81388 -26.63549,-30.21941 -45.55743,-24.68633 -11.51113,3.36603 -20.71164,11.9047 -24.9548,23.15965 -1.79772,4.76845 -2.09807,7.27787 -1.75641,14.67443 l 0.41214,8.92235 -3.80957,-4.42235 c -5.0973,-5.9172 -9.28809,-14.01448 -11.34604,-21.92234 -2.2579,-8.67619 -1.60253,-23.26396 1.39269,-31 1.17122,-3.025 2.12971,-5.51048 2.12999,-5.52329 2.7e-4,-0.0128 -10.687,-0.019 -23.7495,-0.0137 -13.0625,0.005 -27.39146,-0.34646 -31.84214,-0.78167 l -8.09213,-0.79128 2.29147,6.83231 c 4.96515,14.80415 4.06433,28.79831 -2.71163,42.12522 -3.87003,7.61155 -11.202,17.17929 -12.31327,16.06801 -0.32024,-0.32024 -0.0702,-3.13227 0.55577,-6.24894 3.09304,-15.4014 -7.40954,-33.66391 -22.89141,-39.80497 -8.68714,-3.44585 -20.69409,-3.25135 -28.74666,0.46566 -7.85744,3.62694 -15.60014,11.32497 -19.1787,19.06804 -2.477,5.3596 -2.8213,7.27951 -2.8213,15.73229 v 9.62771 l -3.20607,-3.62771 c -7.5009,-8.48738 -13.2592,-23.74289 -13.2592,-35.12771 0,-13.39578 6.07698,-28.02462 15.73801,-37.8854 3.45001,-3.52135 6.15001,-6.49839 6,-6.61566 -0.15,-0.11726 -4.06746,-2.17042 -8.70545,-4.56257 -4.638,-2.39214 -11.75284,-6.73143 -15.81077,-9.64286 -4.05792,-2.9114 -7.59582,-5.29348 -7.86199,-5.29348 -0.26618,0 -10.47633,9.1882 -22.689236,20.41823 l -22.20529,20.41823 -0.66239,-17.66823 c -1.17201,-31.26137 -4.8183,-48.56652 -19.32025,-91.69303 -15.53579,-46.20101 -17.95614,-58.57597 -17.98894,-91.9752 -0.0228,-23.25846 0.88283,-32.41197 5.07067,-51.24921 8.26552,-37.17889 28.67706,-76.29062 53.7454,-102.98467 3.91209,-4.16579 5.29423,-6.60103 6.77281,-11.93325 3.02817,-10.92052 4.2907,-26.75597 3.00343,-37.67093 -1.66721,-14.13643 -4.13042,-20.84458 -11.6279,-31.66659 l -6.57836,-9.49535 5.79276,-0.81591 c 9.05254,-1.27505 27.757346,-0.0933 36.113766,2.28162 14.9208,4.24055 25.863,11.17616 38.31625,24.28638 5.78923,6.09464 8.08798,7.89301 9.5,7.43206 C 169.66176,36.5192 176.35,34.2438 183.5,31.79721 207.08797,23.72586 229.26229,20.16949 256,20.16949 c 26.73771,0 48.91203,3.55637 72.5,11.62772 7.15,2.44659 13.675,4.67785 14.5,4.95835 0.95616,0.3251 5.48818,-3.42086 12.50003,-10.33192 9.5382,-9.40117 12.2624,-11.46395 20.5,-15.52268 13.7334,-6.76658 20.389,-8.15983 39.1666,-8.19888 8.6167,-0.0179 15.9612,0.2619 16.3211,0.62183 0.3599,0.35993 -2.2863,4.96161 -5.8806,10.22596 -9.6137,14.08086 -11.1071,19.60961 -11.1071,41.11962 0,23.46293 1.6771,30.69315 8.9168,38.44009 27.4707,29.39538 48.1101,69.60434 55.9808,109.05991 6.7067,33.62021 5.8432,69.72367 -2.4437,102.18046 -1.1345,4.44317 -6.0612,20.05772 -10.9484,34.69901 -15.0058,44.95545 -17.903,58.67802 -18.8594,89.3259 l -0.6461,20.70537 -19.6886,-17.97492 -19.6886,-17.97493 -7.1479,4.62394 c -7.1862,4.64873 -24.7258,13.41517 -26.8406,13.41517 -1.6679,0 -1.5406,0.21106 3.3235,5.50903 5.1808,5.64297 9.6835,13.71699 11.9468,21.42247 1.8241,6.21016 2.0962,21.18179 0.5101,28.0685 -1.6829,7.30692 -7.0287,17.03438 -12.6202,22.96409 l -5.2202,5.53591 z m 66.9437,-116.44964 c 4.229,-12.58787 4.2129,-12.61687 -3.1758,-5.71171 l -3.695,3.45317 -7.4624,-2.64921 c -4.1043,-1.45707 -7.7726,-2.64921 -8.1518,-2.64921 -0.3792,0 3.5166,4.4469 8.6573,9.882 5.1408,5.4351 9.4677,9.77679 9.6153,9.6482 0.1477,-0.12859 2.0433,-5.51654 4.2124,-11.97324 z M 88.498394,393.41949 c 4.77924,-5.0875 8.38057,-9.25 8.00294,-9.25 -0.37763,0 -4.0477,1.19322 -8.15571,2.65159 l -7.46911,2.65159 -4.93826,-4.864 c -2.71604,-2.6752 -4.93825,-4.43176 -4.93825,-3.90346 0,2.29486 7.27637,22.53575 8.00383,22.26448 0.44276,-0.16511 4.71532,-4.4627 9.49456,-9.5502 z M 410.51513,359.12453 c 1.9167,-5.6914 3.4849,-10.74449 3.4849,-11.22907 0,-0.48459 -2.3034,1.13387 -5.1186,3.59657 l -5.1186,4.47763 -6.6314,-2.29495 c -3.6473,-1.26222 -7.5314,-2.62845 -8.6314,-3.03606 -1.1,-0.40761 2.477,3.80552 7.949,9.36252 5.4719,5.55699 10.0912,9.96137 10.2651,9.7875 0.1739,-0.17387 1.8843,-4.97273 3.801,-10.66414 z M 117,356.76547 c 5.225,-5.44721 8.6,-9.5624 7.5,-9.14487 -1.1,0.41754 -4.93248,1.77432 -8.51662,3.01507 l -6.51663,2.25592 -4.92623,-4.33486 c -2.70943,-2.38417 -5.053256,-4.20784 -5.208496,-4.05259 -0.48345,0.48345 7.087866,22.69684 7.642986,22.42368 0.28875,-0.14208 4.79999,-4.71514 10.02499,-10.16235 z m 332.51513,-5.64094 c 1.9167,-5.6914 3.4849,-10.7501 3.4849,-11.24156 0,-0.49145 -2.3015,1.08925 -5.1143,3.51267 l -5.1143,4.40621 -8.1107,-2.87016 -8.1108,-2.87016 2.4465,2.80398 c 4.7508,5.44502 16.3996,17.24129 16.7146,16.92626 0.1756,-0.17558 1.8874,-4.97583 3.8041,-10.66724 z m -365.435836,-9.11733 1.93199,-2.66229 -7.89198,2.58725 -7.89198,2.58725 -4.82824,-4.12705 c -2.65553,-2.26988 -4.94548,-4.00981 -5.08878,-3.8665 -0.1433,0.1433 1.40374,5.29816 3.43788,11.45524 l 3.69843,11.19471 7.35034,-7.25316 c 4.0427,-3.98924 8.21975,-8.45119 9.28234,-9.91545 z M 271.72801,313.16949 c 23.38919,-44.0766 28.67489,-54.42029 30.78171,-60.23729 l 2.07795,-5.73728 5.38146,4.04356 c 22.91893,17.22094 57.2413,21.65063 84.8148,10.9463 27.6143,-10.72015 48.6044,-35.00729 55.8759,-64.65248 2.2645,-9.23227 2.2797,-29.43372 0.029,-38.60012 -8.3709,-34.09271 -32.9281,-59.46482 -66.1889,-68.3853 -9.9116,-2.65827 -34.08846,-2.65827 -44.00004,0 -33.21285,8.90761 -57.64285,34.13554 -66.22235,68.3853 -1.163,4.64275 -1.69344,10.95763 -1.70619,20.31227 l -0.0185,13.57496 -4.91461,-1.44067 c -4.91277,-1.44014 -20.21976,-1.31332 -23.72624,0.19657 -1.40719,0.60594 -1.53849,-0.48776 -1.15374,-9.61104 1.17401,-27.83847 -11.7309,-55.48072 -34.25836,-73.38122 -7.85401,-6.24086 -23.74121,-13.76733 -35.00692,-16.58433 -12.3029,-3.07634 -31.35758,-3.04722 -42.99308,0.0657 -25.51079,6.82509 -47.164866,24.41736 -58.596396,47.60506 -7.30137,14.81009 -9.18382,23.00907 -9.18382,40 0,11.11022 0.43508,15.60667 2.10784,21.78378 13.7743,50.86552 65.171366,79.60592 114.536886,64.04716 9.48091,-2.98815 15.86203,-6.06625 23.96256,-11.55897 3.20489,-2.17314 5.93915,-3.79835 6.07615,-3.61157 0.13699,0.18678 1.47519,3.76465 2.97377,7.95082 1.49858,4.18617 6.25266,13.70989 10.56462,21.16382 4.31196,7.45392 13.09982,23.60082 19.52857,35.882 13.28155,25.37242 13.35532,25.48825 15.05748,23.64315 0.6597,-0.71511 7.04986,-12.32519 14.20035,-25.80019 z m -19.50806,10.34841 c -2.19077,-3.76662 -6.46463,-11.79841 -9.49746,-17.84841 -3.03283,-6.05 -9.59542,-18.15064 -14.58353,-26.89031 -12.63008,-22.12919 -15.60888,-32.2838 -13.23267,-45.10969 2.49143,-13.44784 10.60312,-24.17138 22.87023,-30.23412 7.42112,-3.66771 7.90786,-3.76588 18.67162,-3.76588 10.34852,0 11.47973,0.20269 17.77519,3.18498 12.09585,5.73006 19.92587,15.11175 23.24376,27.84998 3.35684,12.88778 1.81043,19.31732 -10.21352,42.46504 -12.1816,23.45122 -29.30441,55.34751 -30.24939,56.34841 -0.44055,0.46663 -2.59346,-2.23337 -4.78423,-6 z m 114.26698,-92.14718 c -7.7644,-2.68487 -13.7561,-6.62119 -19.2823,-12.66771 -18.99976,-20.78877 -14.74264,-53.17064 9.0165,-68.58425 8.0989,-5.25409 16.4593,-7.30481 27.6074,-6.77181 7.8437,0.37501 9.9313,0.89391 16.3409,4.0617 36.6176,18.09742 33.5047,70.62701 -4.9698,83.86419 -7.2483,2.49377 -21.6421,2.54284 -28.7127,0.0979 z m 25.802,-19.52465 c 19.6414,-11.51065 18.0879,-39.76326 -2.6815,-48.76712 -17.3451,-7.51931 -37.5117,5.44514 -37.5855,24.1624 -0.032,8.14297 2.522,14.56727 7.9488,19.99415 6.009,6.009 11.4246,7.99267 20.6736,7.57249 5.5232,-0.25092 8.1654,-0.92298 11.6446,-2.96192 z m -31.2889,-28.67658 c -2.7854,-2.78541 -2.6323,-8.05738 0.3144,-10.82569 4.9362,-4.63726 12.6856,-1.36008 12.6856,5.36465 0,4.55733 -2.9189,7.46104 -7.5,7.46104 -2.1667,0 -4.2619,-0.7619 -5.5,-2 z m -199.28499,47.96028 c -6.44403,-1.08342 -16.24055,-5.86342 -21.62658,-10.55222 -10.49587,-9.13715 -15.64024,-21.98398 -14.911,-37.23662 0.37583,-7.86086 0.8911,-9.92557 4.09465,-16.4075 4.36715,-8.83633 11.44845,-16.28901 19.48545,-20.50737 8.06561,-4.23337 14.95879,-5.61857 24.87967,-4.99963 16.08671,1.00362 30.30221,10.64785 37.55459,25.47819 3.20701,6.55799 3.30818,7.14714 3.30818,19.26487 0,11.98963 -0.13072,12.77595 -3.20145,19.25853 -6.12365,12.92753 -19.19411,23.17138 -32.73221,25.65355 -6.62627,1.21491 -9.85691,1.22415 -16.8513,0.0482 z m 21.85588,-19.45117 c 19.67868,-9.62789 19.77455,-38.20602 0.16151,-48.1447 -10.48609,-5.3137 -22.04372,-3.80574 -30.48795,3.97788 -6.81334,6.28032 -8.70986,10.66955 -8.70986,20.15771 0,9.64479 2.0178,14.17558 9.0827,20.39435 8.51912,7.49883 19.34463,8.80524 29.9536,3.61476 z M 153.17431,182.85504 C 146.7498,176.01646 157.3671,165.53659 164,172.16949 c 2.61443,2.61443 2.71152,9.04611 0.17126,11.34501 -2.72232,2.46367 -8.38175,2.12429 -10.99695,-0.65946 z m 230.61682,137.18224 3.0395,-12.13222 -5.2863,5.22066 -5.2863,5.22067 -7.4428,-2.08845 c -4.0936,-1.14865 -7.7502,-2.08845 -8.126,-2.08845 -0.8254,0 18.5449,17.89585 19.4365,17.95705 0.3442,0.0236 1.9936,-5.41655 3.6654,-12.08926 z m -240.80778,0.38221 c 5.37948,-4.8125 9.64913,-8.89729 9.48811,-9.07732 -0.16102,-0.18003 -3.76602,0.64727 -8.01111,1.83845 l -7.71834,2.16577 -5.31893,-5.25287 -5.31894,-5.25286 3.17839,12.16441 c 1.74812,6.69043 3.34524,12.16442 3.54916,12.16442 0.20392,0 4.77217,-3.9375 10.15166,-8.75 z m 277.91758,0 c 0.8343,-3.19902 2.8914,-11.41205 4.6964,-18.75 0.298,-1.21179 -1.4615,0.14187 -4.4645,3.43474 l -4.9565,5.43473 -8.2354,-2.20418 c -4.5294,-1.2123 -8.3399,-2.08293 -8.4676,-1.93474 -0.3406,0.39521 18.8997,17.67356 19.7381,17.72544 0.3913,0.0242 1.1516,-1.64349 1.6895,-3.70599 z m -316.91758,-8 c 5.37948,-4.8125 9.67518,-8.87125 9.54599,-9.01945 -0.1292,-0.14819 -3.8708,0.7037 -8.31469,1.89309 l -8.079786,2.16254 -4.99278,-5.39309 -4.99279,-5.39309 3.04959,12.25 c 1.67728,6.7375 3.26424,12.25 3.52658,12.25 0.26235,0 4.87839,-3.9375 10.257886,-8.75 z m 358.53178,-5.29496 c 1.9167,-5.6914 3.4849,-10.74449 3.4849,-11.22907 0,-0.48459 -2.3146,1.14369 -5.1436,3.6184 l -5.1436,4.49946 -7.8564,-2.89676 c -4.321,-1.59322 -7.8564,-2.57904 -7.8564,-2.19071 0,0.87681 18.277,19.29996 18.7136,18.86331 0.1742,-0.17414 1.8848,-4.97322 3.8015,-10.66463 z M 73.607804,295.44396 c -0.18013,-0.18013 -3.87808,0.9804 -8.21766,2.57895 l -7.89014,2.90646 -4.94286,-4.35375 c -2.71857,-2.39456 -5.06988,-4.22673 -5.22512,-4.07148 -0.15525,0.15524 1.38265,5.32178 3.41755,11.48119 l 3.69983,11.19892 9.74295,-9.70639 c 5.35862,-5.33852 9.59558,-9.85377 9.41545,-10.0339 z"
     id="path819"
     inkscape:connector-curvature="0" />
</svg>
