<?xml version="1.0" encoding="UTF-8" standalone="no"?>
<!-- Created with Inkscape (http://www.inkscape.org/) -->

<svg
   xmlns:dc="http://purl.org/dc/elements/1.1/"
   xmlns:cc="http://creativecommons.org/ns#"
   xmlns:rdf="http://www.w3.org/1999/02/22-rdf-syntax-ns#"
   xmlns:svg="http://www.w3.org/2000/svg"
   xmlns="http://www.w3.org/2000/svg"
   xmlns:sodipodi="http://sodipodi.sourceforge.net/DTD/sodipodi-0.dtd"
   xmlns:inkscape="http://www.inkscape.org/namespaces/inkscape"
   width="219.22618mm"
   height="219.22618mm"
   viewBox="0 0 219.22618 219.22619"
   version="1.1"
   id="svg12369"
   inkscape:version="0.92.2 (5c3e80d, 2017-08-06)"
   sodipodi:docname="tdd-alt.svg">
  <defs
     id="defs12363">
    <marker
       inkscape:stockid="Arrow2Lend"
       orient="auto"
       refY="0"
       refX="0"
       id="Arrow2Lend"
       style="overflow:visible"
       inkscape:isstock="true">
      <path
         id="path13010"
         style="fill:#000000;fill-opacity:1;fill-rule:evenodd;stroke:#000000;stroke-width:0.625;stroke-linejoin:round;stroke-opacity:1"
         d="M 8.7185878,4.0337352 -2.2072895,0.01601326 8.7185884,-4.0017078 c -1.7454984,2.3720609 -1.7354408,5.6174519 -6e-7,8.035443 z"
         transform="matrix(-1.1,0,0,-1.1,-1.1,0)"
         inkscape:connector-curvature="0" />
    </marker>
  </defs>
  <sodipodi:namedview
     id="base"
     pagecolor="#ffffff"
     bordercolor="#666666"
     borderopacity="1.0"
     inkscape:pageopacity="0.0"
     inkscape:pageshadow="2"
     inkscape:zoom="0.7"
     inkscape:cx="467.03725"
     inkscape:cy="379.28575"
     inkscape:document-units="mm"
     inkscape:current-layer="layer2"
     showgrid="false"
     showguides="true"
     inkscape:guide-bbox="true"
     inkscape:lockguides="false"
     units="mm"
     inkscape:snap-global="false"
     inkscape:snap-object-midpoints="true"
     inkscape:object-paths="true"
     inkscape:snap-others="false"
     inkscape:snap-to-guides="false"
     inkscape:snap-nodes="false"
     inkscape:window-width="1442"
     inkscape:window-height="1008"
     inkscape:window-x="279"
     inkscape:window-y="0"
     inkscape:window-maximized="0"
     fit-margin-top="0"
     fit-margin-left="0"
     fit-margin-right="0"
     fit-margin-bottom="0"
     inkscape:pagecheckerboard="false">
    <sodipodi:guide
       position="178.78785,109.52566"
       orientation="0,1"
       id="guide12919"
       inkscape:locked="false" />
    <sodipodi:guide
       position="110.90141,150.68516"
       orientation="1,0"
       id="guide12921"
       inkscape:locked="false" />
    <sodipodi:guide
       position="90.97906,183.05792"
       orientation="0,1"
       id="guide12926"
       inkscape:locked="false" />
    <sodipodi:guide
       position="47.133823,69.523326"
       orientation="1,0"
       id="guide12928"
       inkscape:locked="false" />
    <sodipodi:guide
       position="173.977,220.70978"
       orientation="1,0"
       id="guide12930"
       inkscape:locked="false" />
    <sodipodi:guide
       position="147.25006,72.107922"
       orientation="0,1"
       id="guide12941"
       inkscape:locked="false" />
  </sodipodi:namedview>
  <metadata
     id="metadata12366">
    <rdf:RDF>
      <cc:Work
         rdf:about="">
        <dc:format>image/svg+xml</dc:format>
        <dc:type
           rdf:resource="http://purl.org/dc/dcmitype/StillImage" />
        <dc:title></dc:title>
      </cc:Work>
    </rdf:RDF>
  </metadata>
  <g
     inkscape:label="Layer 1"
     inkscape:groupmode="layer"
     id="layer1"
     transform="translate(10.942602,-87.340683)"
     style="display:none">
    <circle
       style="opacity:1;fill:#000000;fill-opacity:0;stroke:#000000;stroke-width:4.56626415;stroke-linecap:round;stroke-miterlimit:4;stroke-dasharray:none;stroke-opacity:0.39252337"
       id="path13477"
       cx="99.969536"
       cy="197.04659"
       r="73.340714" />
  </g>
  <g
     inkscape:groupmode="layer"
     id="layer3"
     inkscape:label="Layer 3"
     transform="translate(17.008919,6.1702505)"
     style="display:inline" />
  <g
     inkscape:groupmode="layer"
     id="layer2"
     inkscape:label="Layer 2"
     style="display:inline"
     transform="translate(10.942602,9.6593173)">
    <path
       style="display:inline;opacity:1;fill:#969696;fill-opacity:1;stroke:#000000;stroke-width:0;stroke-linecap:round;stroke-linejoin:round;stroke-miterlimit:4;stroke-dasharray:none;stroke-opacity:1"
       d="M 414.28516 0 A 414.28558 414.28558 0 0 0 0 414.28516 A 414.28558 414.28558 0 0 0 414.28516 828.57227 A 414.28558 414.28558 0 0 0 828.57227 414.28516 A 414.28558 414.28558 0 0 0 414.28516 0 z M 419.19922 23.324219 C 481.73368 23.324223 532.63672 74.227248 532.63672 136.76172 C 532.63672 199.29619 481.73368 250.20507 419.19922 250.20508 C 356.66474 250.20508 305.75586 199.29619 305.75586 136.76172 C 305.75586 74.227243 356.66474 23.324216 419.19922 23.324219 z M 419.19922 43.285156 C 367.45463 43.285154 325.72266 85.017127 325.72266 136.76172 C 325.72266 188.5063 367.45463 230.23829 419.19922 230.23828 C 470.94381 230.23828 512.67582 188.5063 512.67578 136.76172 C 512.67582 85.017131 470.94381 43.28516 419.19922 43.285156 z M 470.35547 78.111328 A 9.9834985 9.9834985 0 0 1 477.21484 95.408203 L 434.21094 136.48828 L 477.20898 177.4668 A 9.983498 9.983498 0 1 1 463.43359 191.91992 L 419.75781 150.29492 L 376.20117 191.9043 A 9.9834985 9.9834985 0 1 1 362.41016 177.47266 L 405.29297 136.50977 L 362.41992 95.650391 A 9.983498 9.983498 0 0 1 368.96289 78.349609 A 9.983498 9.983498 0 0 1 376.19531 81.199219 L 419.74609 122.70312 L 463.42578 80.976562 A 9.9834985 9.9834985 0 0 1 470.35547 78.111328 z M 285.13672 169.01367 C 287.29715 169.00391 288.76391 169.05524 288.85352 169.20703 C 289.212 169.81413 278.41951 190.4673 278.07422 191.11328 C 277.72892 191.75928 266.55139 212.20724 265.84766 212.24609 C 265.47124 212.26688 262.03034 206.85987 258.80859 201.66406 C 236.68494 217.59624 210.16287 246.25197 189.46094 280.67773 C 165.55801 320.42651 149.19569 367.77094 152.58789 412.13477 A 10.001 10.001 0 1 1 132.65039 413.65625 C 128.8098 363.4284 146.9066 312.63414 172.32031 270.37305 C 194.75572 233.06464 222.71802 202.35335 248.56641 184.36523 C 245.36484 178.68981 241.76859 172.16938 241.96875 171.79492 C 242.31405 171.14894 264.69861 169.68533 265.40234 169.64648 C 265.93014 169.61734 278.65542 169.04294 285.13672 169.01367 z M 562.4082 169.17578 A 10.001 10.001 0 0 1 568.13672 170.64453 C 663.29521 227.27506 704.46365 322.91742 705.17383 382.5332 A 10.001 10.001 0 0 1 704.80859 385.55273 C 711.32997 386.15864 718.95014 386.93513 719.15039 387.3125 C 719.48941 387.95163 708.39091 407.03398 708.03125 407.62695 C 707.67182 408.21995 695.89798 426.85474 695.19922 426.80859 C 694.5005 426.76248 683.37234 406.61372 683.0332 405.97461 C 682.69418 405.33548 672.25171 384.83322 672.61133 384.24023 C 672.80433 383.92183 679.2081 384.08457 685.29297 384.30859 A 10.001 10.001 0 0 1 685.17773 382.76953 C 684.57868 332.48117 646.60829 240.61284 557.91211 187.82812 A 10.001 10.001 0 0 1 562.4082 169.17578 z M 656.54297 441.58398 C 719.07745 441.58403 769.98633 492.49086 769.98633 555.02539 C 769.98633 617.55987 719.07745 668.46875 656.54297 668.46875 C 594.00844 668.46875 543.09961 617.55987 543.09961 555.02539 C 543.09956 492.49086 594.00844 441.58398 656.54297 441.58398 z M 177.73047 442.59375 C 240.26494 442.59375 291.16795 493.50267 291.16797 556.03711 C 291.16798 618.57162 240.26496 669.48242 177.73047 669.48242 C 115.19598 669.48242 64.285149 618.57162 64.285156 556.03711 C 64.285173 493.50267 115.196 442.59375 177.73047 442.59375 z M 656.54297 461.54883 C 604.79832 461.54878 563.0644 503.28074 563.06445 555.02539 C 563.06445 606.76999 604.79837 648.50391 656.54297 648.50391 C 708.28757 648.50391 750.02148 606.76994 750.02148 555.02539 C 750.02148 503.28079 708.28757 461.54883 656.54297 461.54883 z M 177.73047 462.56055 C 125.98588 462.56055 84.253921 504.29254 84.253906 556.03711 C 84.253902 607.78171 125.98587 649.51367 177.73047 649.51367 C 229.47507 649.51367 271.20704 607.78171 271.20703 556.03711 C 271.20702 504.29254 229.47505 462.56055 177.73047 462.56055 z M 207.24805 492.66016 C 212.07346 492.6867 216.83793 493.31712 217.89062 494.34766 L 218.62695 495.06641 L 207.12305 506.58984 C 195.39217 518.3399 195.09145 518.688 195.45703 520.14648 C 195.73354 521.24954 214.0471 539.5665 215.19531 539.88867 C 216.72126 540.31678 217.00402 540.07382 228.86328 528.2168 L 240.3418 516.74219 L 241.00195 517.43164 C 242.70393 519.20817 243.38275 528.57163 242.2793 535.05469 C 240.16031 547.50449 233.13183 555.63079 221.00195 559.65625 C 212.24247 562.56312 201.78573 561.92744 194.05469 558.01562 L 192.89062 557.42578 L 180.62109 572.17773 C 173.87245 580.29075 163.47087 592.80734 157.50586 599.99219 C 146.02244 613.82397 145.02174 614.86749 141.73047 616.45508 C 138.62932 617.95098 134.4036 618.60721 131.37695 618.0625 C 119.7876 615.97684 113.49699 603.81383 118.56445 593.29102 C 120.20919 589.87572 120.91834 589.21807 140.49805 572.94531 C 150.66563 564.49504 163.17135 554.10032 168.28906 549.8457 C 173.40672 545.59101 177.59375 542.0472 177.59375 541.9707 C 177.59375 541.89436 177.16893 540.76438 176.64844 539.46094 C 172.59145 529.30179 173.04951 518.91264 177.99219 509.04883 C 182.29946 500.45324 188.95828 495.5316 199.28516 493.30859 C 201.43576 492.84564 204.3528 492.64423 207.24805 492.66016 z M 712.38477 505.4082 A 9.9834972 9.9834972 0 0 1 713.08789 505.4082 A 9.9834972 9.9834972 0 0 1 720.61328 521.53125 L 655.80664 606.99219 A 9.9834972 9.9834972 0 0 1 640.75391 607.98438 L 601.52148 568.35938 A 9.98386 9.98386 0 0 1 615.70898 554.30859 L 646.8457 585.75977 L 704.70703 509.4668 A 9.9834972 9.9834972 0 0 1 712.38477 505.4082 z M 129.77539 596.61914 L 129.77539 600.93164 L 129.77539 605.24609 L 134.08984 605.24609 L 138.40234 605.24609 L 138.40234 600.93164 L 138.40234 596.61914 L 134.08984 596.61914 L 129.77539 596.61914 z M 323.25195 646.81445 C 323.914 646.80863 324.31462 646.83428 324.36719 646.90234 C 324.60358 647.20848 321.99086 653.57243 319.56055 659.32031 C 341.33439 671.48934 377.25421 680.90072 417.56055 681.4043 C 458.99657 681.92198 505.10597 673.275 546.56055 650.42969 A 10.001 10.001 0 0 1 551.0332 649.13086 A 10.001 10.001 0 0 1 556.21484 667.94727 C 511.15384 692.78001 461.7015 701.95695 417.31055 701.40234 C 374.84618 700.87181 337.0619 691.65819 311.09961 677.49023 C 308.34413 682.91094 305.35254 688.63673 304.9668 688.68164 C 304.25495 688.76479 290.43805 671.76913 290.01758 671.22461 C 289.5971 670.68009 276.67739 653.05127 276.96875 652.42383 C 277.26011 651.79639 299.83309 648.63761 300.54492 648.55469 C 301.16781 648.48193 318.61764 646.85523 323.25195 646.81445 z "
       id="path13728"
       transform="matrix(0.26458333,0,0,0.26458333,-10.942602,-9.6593173)" />
    <g
       id="g13689"
       transform="matrix(1.331,0,0,1.331,-53.875922,-45.410442)"
       style="stroke:#ffffff;stroke-opacity:1" />
    <g
       style="stroke:#ffffff;stroke-width:3.96875;stroke-miterlimit:4;stroke-dasharray:none;stroke-opacity:1"
       id="g13557"
       transform="matrix(1.331,0,0,1.331,-33.090116,-8.7801062)" />
  </g>
</svg>
