<?xml version="1.0" encoding="UTF-8" standalone="no"?>
<!-- Created with Inkscape (http://www.inkscape.org/) -->

<svg
   xmlns:dc="http://purl.org/dc/elements/1.1/"
   xmlns:cc="http://creativecommons.org/ns#"
   xmlns:rdf="http://www.w3.org/1999/02/22-rdf-syntax-ns#"
   xmlns:svg="http://www.w3.org/2000/svg"
   xmlns="http://www.w3.org/2000/svg"
   xmlns:sodipodi="http://sodipodi.sourceforge.net/DTD/sodipodi-0.dtd"
   xmlns:inkscape="http://www.inkscape.org/namespaces/inkscape"
   viewBox="0 0 224.51785 224.51786"
   version="1.1"
   id="svg12369"
   inkscape:version="0.92.2 (5c3e80d, 2017-08-06)"
   sodipodi:docname="tdd-alt.svg">
  <defs
     id="defs12363">
    <marker
       inkscape:stockid="Arrow2Lend"
       orient="auto"
       refY="0"
       refX="0"
       id="Arrow2Lend"
       style="overflow:visible"
       inkscape:isstock="true">
      <path
         id="path13010"
         style="fill:#000000;fill-opacity:1;fill-rule:evenodd;stroke:#000000;stroke-width:0.625;stroke-linejoin:round;stroke-opacity:1"
         d="M 8.7185878,4.0337352 -2.2072895,0.01601326 8.7185884,-4.0017078 c -1.7454984,2.3720609 -1.7354408,5.6174519 -6e-7,8.035443 z"
         transform="matrix(-1.1,0,0,-1.1,-1.1,0)"
         inkscape:connector-curvature="0" />
    </marker>
  </defs>
  <sodipodi:namedview
     id="base"
     pagecolor="#ffffff"
     bordercolor="#666666"
     borderopacity="1.0"
     inkscape:pageopacity="0.0"
     inkscape:pageshadow="2"
     inkscape:zoom="0.7"
     inkscape:cx="525.62351"
     inkscape:cy="332.59962"
     inkscape:document-units="mm"
     inkscape:current-layer="layer2"
     showgrid="false"
     showguides="true"
     inkscape:guide-bbox="true"
     inkscape:lockguides="false"
     units="mm"
     inkscape:snap-global="false"
     inkscape:snap-object-midpoints="true"
     inkscape:object-paths="true"
     inkscape:snap-others="false"
     inkscape:snap-to-guides="false"
     inkscape:snap-nodes="false"
     inkscape:window-width="1441"
     inkscape:window-height="1008"
     inkscape:window-x="280"
     inkscape:window-y="0"
     inkscape:window-maximized="0"
     fit-margin-top="0"
     fit-margin-left="0"
     fit-margin-right="0"
     fit-margin-bottom="0"
     inkscape:pagecheckerboard="false">
    <sodipodi:guide
       position="181.43369,112.1715"
       orientation="0,1"
       id="guide12919"
       inkscape:locked="false" />
    <sodipodi:guide
       position="113.54724,153.331"
       orientation="1,0"
       id="guide12921"
       inkscape:locked="false" />
    <sodipodi:guide
       position="93.624894,185.70376"
       orientation="0,1"
       id="guide12926"
       inkscape:locked="false" />
    <sodipodi:guide
       position="49.779656,72.169165"
       orientation="1,0"
       id="guide12928"
       inkscape:locked="false" />
    <sodipodi:guide
       position="176.62284,223.35562"
       orientation="1,0"
       id="guide12930"
       inkscape:locked="false" />
    <sodipodi:guide
       position="149.89589,74.753761"
       orientation="0,1"
       id="guide12941"
       inkscape:locked="false" />
  </sodipodi:namedview>
  <metadata
     id="metadata12366">
    <rdf:RDF>
      <cc:Work
         rdf:about="">
        <dc:format>image/svg+xml</dc:format>
        <dc:type
           rdf:resource="http://purl.org/dc/dcmitype/StillImage" />
        <dc:title></dc:title>
      </cc:Work>
    </rdf:RDF>
  </metadata>
  <g
     inkscape:label="Layer 1"
     inkscape:groupmode="layer"
     id="layer1"
     transform="translate(13.588435,-84.69485)"
     style="display:none">
    <circle
       style="opacity:1;fill:#000000;fill-opacity:0;stroke:#000000;stroke-width:4.56626415;stroke-linecap:round;stroke-miterlimit:4;stroke-dasharray:none;stroke-opacity:0.39252337"
       id="path13477"
       cx="99.969536"
       cy="197.04659"
       r="73.340714" />
  </g>
  <g
     inkscape:groupmode="layer"
     id="layer3"
     inkscape:label="Layer 3"
     sodipodi:insensitive="true"
     transform="translate(19.654752,8.8160832)">
    <circle
       style="opacity:1;fill:#000000;fill-opacity:1;stroke:#000000;stroke-width:5.29166651;stroke-linecap:round;stroke-linejoin:round;stroke-miterlimit:4;stroke-dasharray:none;stroke-opacity:1"
       id="path13728"
       cx="92.604172"
       cy="103.44284"
       r="109.61309" />
  </g>
  <g
     inkscape:groupmode="layer"
     id="layer2"
     inkscape:label="Layer 2"
     style="display:inline"
     transform="translate(13.588435,12.30515)">
    <path
       style="fill:none;fill-opacity:1;stroke:#ffffff;stroke-width:5.29166651;stroke-linecap:round;stroke-linejoin:miter;stroke-miterlimit:4;stroke-dasharray:none;stroke-opacity:1"
       d="M 26.791905,99.586124 C 24.878229,74.558743 45.028603,47.654948 58.834969,39.696139"
       id="path12985-1-7"
       inkscape:connector-curvature="0"
       sodipodi:nodetypes="cc" />
    <path
       sodipodi:type="star"
       style="opacity:1;fill:#ffffff;fill-opacity:1;stroke:#ffffff;stroke-width:2.64583325;stroke-linecap:round;stroke-miterlimit:4;stroke-dasharray:none;stroke-opacity:1"
       id="path13425-4-0"
       sodipodi:sides="3"
       sodipodi:cx="175.28226"
       sodipodi:cy="112.53368"
       sodipodi:r1="11.837842"
       sodipodi:r2="6.2822552"
       sodipodi:arg1="1.73638"
       sodipodi:arg2="2.7835776"
       inkscape:flatsided="false"
       inkscape:rounded="0.03"
       inkscape:randomized="0"
       d="m 173.33105,124.20961 c -0.30354,-0.0507 -3.82488,-9.18629 -3.93272,-9.47452 -0.10784,-0.28824 -3.44782,-9.49166 -3.25212,-9.72917 0.1957,-0.23751 9.868,1.28071 10.17154,1.33144 0.30354,0.0507 9.94392,1.75992 10.05176,2.04816 0.10784,0.28823 -6.04312,7.90558 -6.23882,8.14309 -0.1957,0.23751 -6.4961,7.73173 -6.79964,7.681 z"
       inkscape:transform-center-x="-0.9049714"
       inkscape:transform-center-y="0.57328847"
       transform="matrix(-0.38976939,-0.45881057,0.46278829,-0.42132155,75.559681,166.9682)" />
    <circle
       style="opacity:1;fill:#000000;fill-opacity:0.01345293;stroke:#ffffff;stroke-width:5.28240633;stroke-miterlimit:4;stroke-dasharray:none;stroke-opacity:1"
       id="path12924-7"
       cx="36.081387"
       cy="137.45892"
       r="27.373867" />
    <path
       style="fill:#ffffff;fill-opacity:1;stroke:#ffffff;stroke-width:0.06521641;stroke-opacity:1"
       d="m 23.817786,153.86959 c -3.06635,-0.55183 -4.730937,-3.76991 -3.390171,-6.55407 0.435169,-0.90363 0.622719,-1.0776 5.803184,-5.3831 2.690173,-2.2358 5.999088,-4.98614 7.353149,-6.11184 1.354048,-1.12572 2.461913,-2.06331 2.461913,-2.08355 0,-0.0202 -0.112682,-0.31895 -0.250395,-0.66382 -1.073411,-2.68794 -0.951809,-5.43698 0.35594,-8.04678 1.139632,-2.27425 2.901186,-3.57653 5.633505,-4.1647 1.517373,-0.32664 4.477078,-0.16135 4.922741,0.27491 l 0.194553,0.19047 -3.043724,3.04869 c -3.103795,3.10887 -3.182949,3.20086 -3.086223,3.58675 0.07316,0.29185 4.918201,5.13866 5.222,5.2239 0.403741,0.11327 0.478981,0.049 3.616743,-3.08817 l 3.036883,-3.03637 0.174844,0.18248 c 0.450314,0.47004 0.629848,2.94751 0.337893,4.66282 -0.560649,3.29401 -2.42038,5.44431 -5.629743,6.50938 -2.317612,0.76911 -5.084313,0.60052 -7.129817,-0.43448 l -0.307776,-0.15574 -3.246521,3.90288 c -1.785578,2.14657 -4.537797,5.4582 -6.116039,7.35919 -3.038322,3.65966 -3.303038,3.93592 -4.173853,4.35597 -0.820512,0.39579 -1.938285,0.5693 -2.739086,0.42518 z m 1.858667,-4.53236 v -1.14129 h -1.141285 -1.141284 v 1.14129 1.14129 h 1.141284 1.141285 z"
       id="path826"
       inkscape:connector-curvature="0" />
    <g
       id="g13689"
       transform="matrix(1.331,0,0,1.331,-53.875922,-45.410442)"
       style="stroke:#ffffff;stroke-opacity:1">
      <circle
         r="20.566391"
         cy="137.19167"
         cx="162.76714"
         id="path12924-4"
         style="opacity:1;fill:#000000;fill-opacity:0.01345293;stroke:#ffffff;stroke-width:3.96875;stroke-miterlimit:4;stroke-dasharray:none;stroke-opacity:1" />
      <path
         sodipodi:nodetypes="ccc"
         inkscape:connector-curvature="0"
         id="path13542"
         d="m 153.24029,138.44522 7.79968,7.87741 12.88329,-16.98855"
         style="fill:none;stroke:#ffffff;stroke-width:3.96875;stroke-linecap:round;stroke-linejoin:round;stroke-miterlimit:4;stroke-dasharray:none;stroke-opacity:1" />
    </g>
    <circle
       style="opacity:1;fill:#000000;fill-opacity:0.01345293;stroke:#ffffff;stroke-width:5.28240633;stroke-miterlimit:4;stroke-dasharray:none;stroke-opacity:1"
       id="path12924"
       cx="99.970139"
       cy="26.525999"
       r="27.373863" />
    <g
       style="stroke:#ffffff;stroke-width:3.96875;stroke-miterlimit:4;stroke-dasharray:none;stroke-opacity:1"
       id="g13557"
       transform="matrix(1.331,0,0,1.331,-33.090116,-8.7801062)">
      <path
         inkscape:connector-curvature="0"
         id="path13552"
         d="M 90.052825,16.917784 110.13281,36.052828"
         style="fill:none;stroke:#ffffff;stroke-width:3.96875;stroke-linecap:round;stroke-linejoin:miter;stroke-miterlimit:4;stroke-dasharray:none;stroke-opacity:1" />
    </g>
    <path
       style="fill:none;stroke:#ffffff;stroke-width:5.28240633;stroke-linecap:round;stroke-linejoin:miter;stroke-miterlimit:4;stroke-dasharray:none;stroke-opacity:1"
       d="M 113.49665,13.674579 86.770194,39.206208"
       id="path13554"
       inkscape:connector-curvature="0" />
    <path
       style="fill:none;fill-opacity:1;stroke:#ffffff;stroke-width:5.29166651;stroke-linecap:round;stroke-linejoin:miter;stroke-miterlimit:4;stroke-dasharray:none;stroke-opacity:1"
       d="m 138.02411,37.763426 c 24.32244,14.474725 34.79125,39.281242 34.96445,53.820644"
       id="path12985-1-7-1"
       inkscape:connector-curvature="0"
       sodipodi:nodetypes="cc" />
    <path
       sodipodi:type="star"
       style="opacity:1;fill:#ffffff;fill-opacity:1;stroke:#ffffff;stroke-width:2.64583325;stroke-linecap:round;stroke-miterlimit:4;stroke-dasharray:none;stroke-opacity:1"
       id="path13425-4-0-3"
       sodipodi:sides="3"
       sodipodi:cx="175.74242"
       sodipodi:cy="106.73795"
       sodipodi:r1="11.696088"
       sodipodi:r2="6.2822552"
       sodipodi:arg1="1.8388316"
       sodipodi:arg2="2.8860292"
       inkscape:flatsided="false"
       inkscape:rounded="0.03"
       inkscape:randomized="0"
       d="m 172.64486,118.01641 c -0.2933,-0.0805 -2.90377,-9.39609 -2.98066,-9.69036 -0.0769,-0.29428 -2.35684,-9.696169 -2.14043,-9.909892 0.2164,-0.213723 9.58913,2.183312 9.88242,2.263862 0.29329,0.0806 9.57555,2.807 9.65244,3.10127 0.0769,0.29428 -6.68537,7.21278 -6.90178,7.4265 -0.2164,0.21373 -7.2187,6.88917 -7.51199,6.80862 z"
       inkscape:transform-center-x="-0.74289425"
       inkscape:transform-center-y="0.70439259"
       transform="matrix(0.58886137,-0.12517843,0.15105831,0.60734362,53.504204,53.202153)" />
    <path
       style="fill:none;stroke:#ffffff;stroke-width:5.29166651;stroke-linecap:round;stroke-linejoin:miter;stroke-miterlimit:4;stroke-dasharray:none;stroke-opacity:1"
       d="m 134.94545,164.7506 c -22.89058,12.61482 -50.569833,9.43583 -63.154286,2.04415"
       id="path12985-1-7-6"
       inkscape:connector-curvature="0"
       sodipodi:nodetypes="cc" />
    <path
       sodipodi:type="star"
       style="opacity:1;fill:#ffffff;fill-opacity:1;stroke:#ffffff;stroke-width:2.64583325;stroke-linecap:round;stroke-miterlimit:4;stroke-dasharray:none;stroke-opacity:1"
       id="path13425-4-0-5"
       sodipodi:sides="3"
       sodipodi:cx="175.16531"
       sodipodi:cy="108.81877"
       sodipodi:r1="11.577393"
       sodipodi:r2="6.2822552"
       sodipodi:arg1="1.7927465"
       sodipodi:arg2="2.8399441"
       inkscape:flatsided="false"
       inkscape:rounded="0.03"
       inkscape:randomized="0"
       d="m 172.61675,120.11217 c -0.29376,-0.0663 -3.36056,-9.13942 -3.45004,-9.42697 -0.0895,-0.28756 -2.71178,-9.49898 -2.50749,-9.72025 0.2043,-0.22126 9.59526,1.65938 9.88902,1.72567 0.29377,0.0663 9.58225,2.40101 9.67172,2.68857 0.0895,0.28755 -6.23468,7.48005 -6.43898,7.70131 -0.20429,0.22126 -6.87046,7.09796 -7.16423,7.03167 z"
       inkscape:transform-center-x="-0.30075498"
       inkscape:transform-center-y="1.0923352"
       transform="matrix(-0.12326809,0.58926419,-0.61662307,-0.10705537,157.68059,74.102939)" />
  </g>
</svg>
